# xmcd CD database file
# Copyright (C) 1997 Ti Kan
# 
# Track frame offsets:
#     182
#     13465
#     25240
#     38107
#     51900
#     64707
#     79535
#     92717
#     103425
#     114472
#     129867
#     141532
#     153530
#     165895
#     177270
#     190700
#     201222
#     215362
#     227890
#     241150
# 
# Disc length: 3330 seconds
# 
# Revision: 1
# Processed by: cddbd v1.4b41PL1 Copyright (c) Steve Scherf et al.
# Submitted via: DiscPlay 4.0.3
# 
DISCID=120d0014
DTITLE=Sonny Boy Williamson - The Very Best of Sonny Boy Williamson
DYEAR=1900
DGENRE=
TTITLE0=Work With Me
TTITLE1=Don't Start Me Talkin'
TTITLE2=All My Love In Vain
TTITLE3=Don't Lose Your Eye
TTITLE4=Keep It To Yourself
TTITLE5=The Key (To Your Door)
TTITLE6=Have You Ever Been In Love
TTITLE7=Fattening Frogs For Snakes
TTITLE8=I Don't Know
TTITLE9=Cross My Heart
TTITLE10=Born Blind
TTITLE11=Ninety Nine
TTITLE12=Dissatisfied
TTITLE13=Your Funeral And My Trial
TTITLE14=Wake Up Baby
TTITLE15=Let Your Conscience Be Your Guide
TTITLE16=Unseeing Eye
TTITLE17=The Goat
TTITLE18=It's Sad To Be Alone
TTITLE19=Checkin' Up On My Baby
EXTD=
EXTT0=
EXTT1=
EXTT2=
EXTT3=
EXTT4=
EXTT5=
EXTT6=
EXTT7=
EXTT8=
EXTT9=
EXTT10=
EXTT11=
EXTT12=
EXTT13=
EXTT14=
EXTT15=
EXTT16=
EXTT17=
EXTT18=
EXTT19=
PLAYORDER=
